<?xml version="1.0" encoding="UTF-8"?>
<svg version="1.1" xmlns="http://www.w3.org/2000/svg" width="1024" height="1024">
<path d="M0 0 C337.92 0 675.84 0 1024 0 C1024 337.92 1024 675.84 1024 1024 C686.08 1024 348.16 1024 0 1024 C0 686.08 0 348.16 0 0 Z " fill="#FDFDFD" transform="translate(0,0)"/>
<path d="M0 0 C0.66 0.33 1.32 0.66 2 1 C-9.36525581 29.63943887 -9.36525581 29.63943887 -16.03613281 42.16503906 C-17.03238361 44.06165026 -17.98340751 45.97645458 -18.9296875 47.8984375 C-36.82210147 83.68326545 -65.08578937 118.43732499 -96 144 C-96.53931152 144.45310547 -97.07862305 144.90621094 -97.63427734 145.37304688 C-107.36635784 153.53759576 -117.35316372 161.0707672 -128 168 C-128.76344727 168.49967285 -129.52689453 168.9993457 -130.31347656 169.51416016 C-152.9542891 184.22473261 -176.93294074 196.03362943 -202 206 C-202.86028809 206.34643555 -203.72057617 206.69287109 -204.60693359 207.04980469 C-216.58588898 211.83754512 -228.77397736 215.22875685 -241.2902832 218.31274414 C-244.01286176 219.00326208 -246.71403304 219.75176053 -249.41796875 220.51171875 C-255.3332573 222.13546179 -261.29336003 223.38974808 -267.3125 224.5625 C-268.82166992 224.87477539 -268.82166992 224.87477539 -270.36132812 225.19335938 C-288.14805549 228.66792522 -306.19685523 229.35415907 -324.27636719 229.31567383 C-327.36689444 229.3125083 -330.4564643 229.33612924 -333.546875 229.36132812 C-352.63032772 229.42305816 -371.44718483 227.57858678 -390 223 C-391.59714844 222.62875 -391.59714844 222.62875 -393.2265625 222.25 C-398.35578161 221.02815128 -403.25902175 219.64342797 -408.14892578 217.671875 C-410.29789089 216.84277717 -410.29789089 216.84277717 -413.8671875 216.1875 C-419.21628072 214.91477572 -423.54255448 211.9397137 -428.125 209 C-429.04933838 208.41621582 -429.97367676 207.83243164 -430.92602539 207.23095703 C-450.13431256 195.00066084 -469.58675468 181.02820145 -485.421875 164.578125 C-487.06018582 162.93981418 -488.78170498 161.48150174 -490.5625 160 C-500.75913799 151.19200921 -509.73575042 140.59800777 -518 130 C-518.50950195 129.34708984 -519.01900391 128.69417969 -519.54394531 128.02148438 C-537 105.59101132 -537 105.59101132 -537 102 C-535.22526042 101.32682292 -533.45052083 100.65364583 -531.67578125 99.98046875 C-530.51820313 99.54138184 -529.360625 99.10229492 -528.16796875 98.64990234 C-525.54949874 97.65668668 -522.93100633 96.66353006 -520.3125 95.67041016 C-513.94105226 93.25386106 -507.56975846 90.83691094 -501.19921875 88.41796875 C-487.59399808 83.25288497 -473.98359761 78.10164835 -460.36984253 72.95910645 C-457.48942307 71.87100448 -454.60908847 70.78267811 -451.72875977 69.69433594 C-442.83891167 66.33572245 -433.9482212 62.97939208 -425.05430603 59.63156128 C-420.18157075 57.79727851 -415.30940246 55.9614935 -410.4375 54.125 C-409.02683762 53.59335236 -409.02683762 53.59335236 -407.587677 53.05096436 C-394.68701101 48.18584534 -381.81977345 43.2470191 -369.01538086 38.13330078 C-367.99839111 37.72837402 -366.98140137 37.32344727 -365.93359375 36.90625 C-364.6350647 36.38514648 -364.6350647 36.38514648 -363.31030273 35.85351562 C-361.21844592 35.08070241 -359.17344694 34.48933139 -357 34 C-359.64996129 36.81617277 -362.18468697 38.89062735 -365.53515625 40.8125 C-366.41719727 41.32441895 -367.29923828 41.83633789 -368.20800781 42.36376953 C-369.14999023 42.90372559 -370.09197266 43.44368164 -371.0625 44 C-379.1644041 48.71211435 -387.15960555 53.5448948 -395.05224609 58.59936523 C-399.06034523 61.16101889 -403.09007881 63.66646455 -407.18359375 66.08984375 C-408.02245117 66.58919434 -408.86130859 67.08854492 -409.72558594 67.60302734 C-411.33408942 68.55658088 -412.94785225 69.50133276 -414.56738281 70.43603516 C-416.42876826 71.54320235 -418.22284126 72.7621463 -420 74 C-420.31547223 77.02998629 -420.31547223 77.02998629 -418.41796875 78.9453125 C-412.55557606 84.67423565 -406.44393791 89.93959135 -400 95 C-399.37029297 95.50080078 -398.74058594 96.00160156 -398.09179688 96.51757812 C-389.03887883 103.70284545 -379.90845972 110.26957097 -369.83740234 115.94824219 C-368.02197499 116.98742117 -366.23916626 118.06895061 -364.45703125 119.1640625 C-328.75137526 140.71552242 -286.16898379 150.205398 -244.8125 150.25 C-244.07276947 150.25133942 -243.33303894 150.25267883 -242.57089233 150.25405884 C-223.78429934 150.24673876 -205.31451994 148.26786324 -187 144 C-185.73671875 143.71382812 -184.4734375 143.42765625 -183.171875 143.1328125 C-144.7024709 134.15377073 -108.33848722 115.91341128 -79.25 89.0625 C-77.27210442 87.24942906 -75.24803183 85.52960986 -73.1875 83.8125 C-51.75153073 65.00222175 -32.7691863 38.45754694 -22.17236328 11.92797852 C-20.62982318 9.39123566 -19.17830529 8.83161841 -16.46484375 7.67578125 C-15.57345703 7.28712891 -14.68207031 6.89847656 -13.76367188 6.49804688 C-12.3647168 5.91120117 -12.3647168 5.91120117 -10.9375 5.3125 C-9.09174524 4.51855869 -7.24665554 3.72306882 -5.40234375 2.92578125 C-4.58241943 2.57942627 -3.76249512 2.23307129 -2.91772461 1.8762207 C-1.0340952 1.15052597 -1.0340952 1.15052597 0 0 Z " fill="#010101" transform="translate(753,583)"/>
<path d="M0 0 C3.07429776 0.73697922 6.06318587 1.32030294 9.20429993 1.70553589 C12.55813865 2.25907017 14.5837496 3.0781863 17.47505188 4.81100464 C18.36329651 5.33782837 19.25154114 5.8646521 20.16670227 6.40744019 C21.55876892 7.26075928 21.55876892 7.26075928 22.97895813 8.13131714 C23.94889709 8.71630981 24.91883606 9.30130249 25.91816711 9.90402222 C39.05638297 17.90228101 51.49661004 26.70188627 63.54145813 36.25631714 C64.43993469 36.96014526 65.33841125 37.66397339 66.26411438 38.38912964 C82.14083754 51.06244916 97.79891306 65.59593198 110.40473938 81.55709839 C112.69766883 84.45365095 115.08312204 87.2569599 117.47895813 90.06881714 C121.20911456 94.54969688 124.78349789 99.11524834 128.22895813 103.81881714 C128.89882751 104.7127417 128.89882751 104.7127417 129.58222961 105.62472534 C130.80317688 107.32272339 130.80317688 107.32272339 132.54145813 110.25631714 C132.21145813 111.24631714 131.88145813 112.23631714 131.54145813 113.25631714 C128.9733429 114.53634644 128.9733429 114.53634644 125.48286438 115.83053589 C124.84472305 116.07100143 124.20658173 116.31146698 123.54910278 116.55921936 C121.40452022 117.36467064 119.25432592 118.15395437 117.10395813 118.94381714 C115.57502488 119.51504204 114.04655113 120.08749813 112.51850891 120.66110229 C109.23930336 121.89102545 105.95812755 123.11549163 102.67573547 124.33688354 C97.55465717 126.24651462 92.44689868 128.18999904 87.34223938 130.14303589 C86.48987198 130.46909821 85.63750458 130.79516052 84.75930786 131.13110352 C83.02210938 131.79575213 81.28493196 132.46045579 79.54777527 133.12521362 C63.90364577 139.10686192 48.23081448 145.01031751 32.54368591 150.87811279 C17.37137209 156.55441775 2.23393987 162.31862178 -12.88986206 168.12278748 C-16.92014007 169.66884268 -20.95357589 171.20630387 -24.98979187 172.73678589 C-25.96021423 173.1048938 -26.9306366 173.47300171 -27.9304657 173.8522644 C-29.65640934 174.50630131 -31.38276313 175.15925766 -33.10966492 175.8107605 C-37.61145975 177.51790316 -42.04672995 179.32797551 -46.45854187 181.25631714 C-46.45854187 180.59631714 -46.45854187 179.93631714 -46.45854187 179.25631714 C-45.63354187 178.79483276 -44.80854187 178.33334839 -43.95854187 177.85787964 C-36.75828223 173.80218436 -29.68842176 169.58353012 -22.69804382 165.17623901 C-17.70849112 162.03107813 -12.68625756 158.94454694 -7.64604187 155.88131714 C1.8217359 150.12003828 11.18815556 144.20115977 20.54145813 138.25631714 C7.69124257 122.94071597 -9.07473888 111.00400241 -26.45854187 101.25631714 C-27.25292664 100.80933472 -28.0473114 100.36235229 -28.86576843 99.90182495 C-43.24482752 91.90291309 -57.85044996 85.45901444 -73.45854187 80.25631714 C-74.33155945 79.96531128 -75.20457703 79.67430542 -76.10404968 79.3744812 C-96.39628656 72.77620119 -118.09321125 68.4720882 -139.45854187 68.25631714 C-140.59726746 68.23730347 -141.73599304 68.21828979 -142.90922546 68.19869995 C-157.84948172 67.96893678 -172.68020229 67.74434071 -187.45854187 70.25631714 C-188.2748407 70.38522339 -189.09113953 70.51412964 -189.93217468 70.64694214 C-211.32244429 74.04047738 -231.61627053 79.5412959 -251.45854187 88.25631714 C-252.26952332 88.61097046 -253.08050476 88.96562378 -253.9160614 89.33102417 C-279.54242085 100.67233356 -302.16807339 117.01035323 -322.45854187 136.25631714 C-322.96175964 136.73085327 -323.46497742 137.2053894 -323.98344421 137.69430542 C-331.97472605 145.27946872 -338.94303465 153.37559154 -345.45854187 162.25631714 C-345.90552429 162.86427124 -346.35250671 163.47222534 -346.81303406 164.09860229 C-355.52550617 176.07589927 -364.01968129 189.01370569 -369.91947937 202.62741089 C-371.93233113 206.06560691 -374.12516432 207.26023253 -377.58354187 209.19381714 C-382.64964504 212.10535438 -387.25525712 215.26917137 -391.75151062 219.00631714 C-393.45854187 220.25631714 -393.45854187 220.25631714 -395.45854187 220.25631714 C-389.97136763 199.33646536 -379.57891584 178.72589621 -368.45854187 160.25631714 C-368.09567078 159.64497925 -367.73279968 159.03364136 -367.3589325 158.40377808 C-357.4129778 141.70450303 -345.83760313 126.26295691 -332.85160828 111.81246948 C-331.65828264 110.47944151 -330.48414341 109.12928067 -329.31401062 107.77584839 C-318.11079912 94.93745414 -305.9112485 82.71720876 -292.45854187 72.25631714 C-290.58084639 70.6553064 -288.70600142 69.05094841 -286.83354187 67.44381714 C-269.01345911 52.6052154 -248.90063344 40.13994353 -228.45854187 29.25631714 C-227.66174011 28.82995972 -226.86493835 28.40360229 -226.04399109 27.96432495 C-211.30120802 20.14690724 -196.14920462 13.90907273 -180.45854187 8.25631714 C-179.69396667 7.9806189 -178.92939148 7.70492065 -178.14164734 7.42086792 C-173.94438251 5.926242 -169.72031788 4.55460652 -165.45854187 3.25631714 C-164.79048523 3.05200073 -164.12242859 2.84768433 -163.43412781 2.63717651 C-147.56411489 -2.15787075 -131.42632123 -5.14081694 -115.02104187 -7.43118286 C-114.17058289 -7.55058228 -113.3201239 -7.66998169 -112.44389343 -7.79299927 C-74.34808888 -12.84562901 -37.11648475 -9.02771346 0 0 Z " fill="#010101" transform="translate(665.4585418701172,203.74368286132813)"/>
<path d="M0 0 C1.49919983 0.00273422 1.49919983 0.00273422 3.02868652 0.00552368 C29.05322446 0.08499622 54.17651681 2.67407753 79.625 8.3125 C80.25233032 8.44865723 80.87966064 8.58481445 81.52600098 8.72509766 C92.66608082 11.15683564 103.44970406 14.29219845 114.25 17.9375 C115.02515961 18.19684326 115.80031921 18.45618652 116.59896851 18.72338867 C132.42436796 24.03392268 148.22314367 29.76079044 162.625 38.3125 C159.9264261 39.66178695 158.80359907 39.01142901 155.91015625 38.23828125 C154.43494507 37.85772583 154.43494507 37.85772583 152.92993164 37.46948242 C151.32492798 37.05146362 151.32492798 37.05146362 149.6875 36.625 C130.07776925 31.70430272 109.52064522 28.12805569 89.2421875 28.1796875 C87.95527512 28.17825241 87.95527512 28.17825241 86.6423645 28.17678833 C84.83904954 28.17611302 83.03573205 28.17792161 81.23242188 28.18212891 C78.52728562 28.18744636 75.82231842 28.18218218 73.1171875 28.17578125 C56.71869376 28.16629806 40.73892148 29.12129039 24.5625 31.875 C23.79008972 32.00532623 23.01767944 32.13565247 22.22186279 32.26992798 C-38.40615691 42.60338681 -95.93507969 67.87684608 -143.375 107.3125 C-144.30441406 108.05242187 -145.23382813 108.79234375 -146.19140625 109.5546875 C-163.9949837 123.7874194 -181.5937386 140.12923859 -195.375 158.3125 C-196.37230156 159.58312847 -197.37112649 160.85256208 -198.37109375 162.12109375 C-222.52643814 192.96522211 -245.24047076 229.58384047 -253.125 268.4375 C-255.03369542 276.17639235 -259.55518977 280.7505396 -264.85546875 286.421875 C-274.14875885 296.4335735 -281.4933168 308.5656924 -288.375 320.3125 C-289.38046875 322.00052734 -289.38046875 322.00052734 -290.40625 323.72265625 C-303.1952793 345.55149759 -316.84541362 371.11309223 -321.375 396.3125 C-322.035 396.3125 -322.695 396.3125 -323.375 396.3125 C-328.88145988 371.75401573 -331.64559067 347.57747425 -331.625 322.4375 C-331.62440582 321.64179596 -331.62381165 320.84609192 -331.62319946 320.02627563 C-331.54682539 293.3344005 -331.54682539 293.3344005 -329.375 285.3125 C-329.20298249 283.5384399 -329.03344843 281.7640612 -328.88305664 279.98803711 C-326.07050631 248.69885361 -316.43988586 216.4187223 -302.375 188.3125 C-301.91399902 187.37567383 -301.45299805 186.43884766 -300.97802734 185.47363281 C-293.70291071 170.76539638 -285.69747816 156.81582925 -276.375 143.3125 C-275.66988281 142.28382813 -274.96476562 141.25515625 -274.23828125 140.1953125 C-270.35613197 134.70984371 -266.15604434 129.47817288 -261.9375 124.25 C-261.42380859 123.61288086 -260.91011719 122.97576172 -260.38085938 122.31933594 C-252.7594456 112.98048747 -244.51632615 104.27258815 -236 95.75 C-235.13117188 94.86892578 -234.26234375 93.98785156 -233.3671875 93.08007812 C-227.35299409 87.05253962 -221.0509595 81.59248239 -214.375 76.3125 C-213.14824421 75.32315629 -211.92165249 74.33360907 -210.6953125 73.34375 C-151.12862786 25.9337169 -76.12968095 -0.29028596 0 0 Z " fill="#010101" transform="translate(508.375,164.6875)"/>
<path d="M0 0 C0.13859174 7.82016704 -0.14207378 15.42779953 -1.125 23.1875 C-1.25261719 24.20416748 -1.38023437 25.22083496 -1.51171875 26.26831055 C-3.11180912 38.05005701 -5.95930079 49.51877351 -9 61 C-9.23589844 61.90580811 -9.47179687 62.81161621 -9.71484375 63.74487305 C-25.95178183 124.94606163 -63.44962155 184.99496079 -113.71875 224.2109375 C-115.78584411 225.83204898 -117.69837393 227.52952587 -119.625 229.3125 C-130.30597204 238.74589949 -142.85175921 246.59914008 -155 254 C-156.08812988 254.66418945 -156.08812988 254.66418945 -157.19824219 255.34179688 C-189.47398837 274.8436775 -224.50311253 288.50343815 -261.3125 296.5625 C-262.00054718 296.71374329 -262.68859436 296.86498657 -263.39749146 297.02081299 C-287.91746781 302.36460726 -312.63350959 304.22374933 -337.6875 304.1875 C-338.86162949 304.18659363 -338.86162949 304.18659363 -340.05947876 304.18566895 C-352.79964216 304.15913065 -365.36014513 303.71198623 -378 302 C-378.9684082 301.87109375 -379.93681641 301.7421875 -380.93457031 301.609375 C-420.11300687 296.23121021 -463.80102545 285.52496216 -498 265 C-498.33 264.34 -498.66 263.68 -499 263 C-493.97130116 263.96824626 -488.96347803 264.98386889 -483.984375 266.18359375 C-474.60140714 268.44257204 -465.25271506 270.43244684 -455.6875 271.75 C-454.86668945 271.86529053 -454.04587891 271.98058105 -453.20019531 272.09936523 C-438.0090609 274.0583157 -422.66944794 274.23515772 -407.375 274.25 C-406.45545532 274.25167175 -405.53591064 274.25334351 -404.58850098 274.25506592 C-391.25481087 274.25651391 -378.28813671 273.69073048 -365.12939453 271.36279297 C-362.16190452 270.85721052 -359.17693521 270.53644731 -356.1875 270.1875 C-303.18659866 262.40638091 -251.30409247 240.67919046 -207 211 C-205.84395264 210.2265625 -205.84395264 210.2265625 -204.66455078 209.4375 C-187.03385862 197.54172 -171.26827067 183.76602492 -156 169 C-155.0925 168.13375 -154.185 167.2675 -153.25 166.375 C-147.67839388 160.95816072 -142.83490303 155.07462175 -138 149 C-137.06380781 147.85309789 -136.12624627 146.70731253 -135.1875 145.5625 C-124.41580206 132.36637252 -114.56308611 118.63681759 -106.07226562 103.859375 C-104.99489801 101.99115283 -103.89700386 100.13614098 -102.796875 98.28125 C-94.68506936 84.43083 -87.42154591 69.70358028 -82.7265625 54.32421875 C-82 52 -82 52 -80.4375 48.375 C-78.92383571 45.23477137 -78.92383571 45.23477137 -78.67578125 42.6015625 C-78.18745936 39.61787092 -77.57413907 37.59394422 -76 35 C-72.12525907 32.38748528 -67.87487744 30.80204736 -63.55761719 29.07568359 C-58.47789479 26.93925205 -53.57056794 24.42686446 -48.625 22 C-37.77693304 16.74315895 -26.8487495 11.6759208 -15.875 6.6875 C-15.1364679 6.35113525 -14.39793579 6.01477051 -13.63702393 5.66821289 C-11.54818566 4.71774918 -9.45801623 3.77029459 -7.3671875 2.82421875 C-6.42072357 2.39395638 -6.42072357 2.39395638 -5.45513916 1.95500183 C-1.11620118 0 -1.11620118 0 0 0 Z " fill="#010101" transform="translate(846,540)"/>
<path d="M0 0 C2.32497803 6.97493409 -3.06302093 16.55530308 -5.82421875 23.17578125 C-6.730448 25.35253789 -7.60233072 27.53353112 -8.45703125 29.73046875 C-21.87660813 63.82694261 -43.01083648 94.51011369 -67 122 C-67.74636719 122.85851562 -68.49273438 123.71703125 -69.26171875 124.6015625 C-77.568581 133.99711585 -86.40857323 142.91480812 -96 151 C-96.94101562 151.81855469 -97.88203125 152.63710938 -98.8515625 153.48046875 C-117.03004374 169.22254227 -137.00807765 182.33509133 -158 194 C-158.81710449 194.4552002 -159.63420898 194.91040039 -160.47607422 195.37939453 C-174.87257478 203.33037532 -189.74428128 209.87982889 -205 216 C-205.85303711 216.34546875 -206.70607422 216.6909375 -207.58496094 217.046875 C-221.38516532 222.58283862 -235.59815144 226.370709 -250 230 C-251.0720166 230.27763184 -252.1440332 230.55526367 -253.24853516 230.84130859 C-269.17326984 234.9442725 -284.8888785 237.33285814 -301.2746582 238.70629883 C-303.94705021 238.94138197 -303.94705021 238.94138197 -306.31079102 239.5234375 C-310.10885685 240.19650373 -313.8819503 240.16216473 -317.7265625 240.16796875 C-318.57862274 240.17224884 -319.43068298 240.17652893 -320.30856323 240.18093872 C-323.08076185 240.19095868 -325.85278662 240.19098343 -328.625 240.1875 C-330.04558716 240.18609512 -330.04558716 240.18609512 -331.49487305 240.18466187 C-360.34661972 240.1227286 -388.19264809 237.8495188 -416.046875 229.796875 C-419.01824975 228.93447005 -419.01824975 228.93447005 -422.2109375 228.51953125 C-425.68890356 227.87167483 -427.41901949 226.35324693 -430 224 C-425.46407749 224.61819634 -421.202269 225.75159227 -416.81762695 227.01879883 C-407.88601004 229.59183264 -398.97421498 231.73336227 -389.8125 233.3125 C-388.89412354 233.47145752 -387.97574707 233.63041504 -387.02954102 233.79418945 C-377.02896843 235.44058655 -367.11043955 236.15605272 -356.98046875 236.16796875 C-355.96060379 236.17129715 -354.94073883 236.17462555 -353.88996887 236.17805481 C-351.74118495 236.18308488 -349.59239332 236.18546436 -347.44360352 236.18530273 C-344.23374754 236.18746879 -341.02424762 236.20561067 -337.81445312 236.22460938 C-318.00403528 236.28162463 -298.77243309 234.81636816 -279.375 230.75 C-278.62917664 230.59759857 -277.88335327 230.44519714 -277.1149292 230.28817749 C-265.85805659 227.98547875 -254.83169442 225.26681481 -243.92236328 221.63037109 C-241.15662405 220.72344467 -238.35811069 219.93434873 -235.5625 219.125 C-189.03457769 204.66683488 -144.32665755 179.95207958 -108.31640625 147.09765625 C-106.32475183 145.29408387 -104.29978143 143.54893904 -102.25 141.8125 C-93.08032931 133.79601305 -84.55905727 125.06796068 -77.01171875 115.51171875 C-75.06848288 113.08550387 -73.03544467 110.79272484 -70.9375 108.5 C-66.56034092 103.60032291 -62.72592275 98.40487033 -59 93 C-58.48630859 92.25669434 -57.97261719 91.51338867 -57.44335938 90.74755859 C-49.26297428 78.84860417 -41.69256104 66.79669974 -35 54 C-34.64744141 53.33194336 -34.29488281 52.66388672 -33.93164062 51.97558594 C-29.85912753 44.21641698 -26.20945222 36.32732142 -22.8125 28.25 C-22.47025391 27.4453833 -22.12800781 26.6407666 -21.77539062 25.81176758 C-20.32121783 22.35241571 -18.98894129 18.96424223 -17.87890625 15.375 C-15.97516694 9.44896324 -14.10744648 6.59646545 -8.65869141 3.69433594 C-5.81370474 2.33139212 -2.94492844 1.13174517 0 0 Z " fill="#F4F4F4" transform="translate(769,575)"/>
<path d="M0 0 C0.88908051 -0.00261841 1.77816101 -0.00523682 2.69418335 -0.00793457 C19.21731888 -0.01310191 35.08818482 1.38935415 51.375 4.3125 C52.35774902 4.48861816 53.34049805 4.66473633 54.35302734 4.84619141 C59.33987973 5.76224981 64.30200469 6.76466511 69.25439453 7.85107422 C71.34208688 8.30533838 73.43327859 8.73633948 75.52734375 9.16015625 C80.68447275 10.21925705 85.52597039 11.22286293 90.375 13.3125 C90.375 13.6425 90.375 13.9725 90.375 14.3125 C82.94983838 13.7126507 75.92310059 12.121335 68.68063354 10.415802 C-4.83366708 -6.68940493 -79.99308718 7.70064331 -146.625 41.3125 C-147.36572754 41.6822998 -148.10645508 42.05209961 -148.86962891 42.43310547 C-165.02223469 50.53907883 -180.10555274 60.59153894 -194.625 71.3125 C-195.63820313 72.04984375 -196.65140625 72.7871875 -197.6953125 73.546875 C-218.66146458 88.98409403 -239.54046164 107.18858765 -255.60546875 127.73828125 C-257.77869768 130.50841252 -260.07200199 133.14954377 -262.375 135.8125 C-269.09189874 143.86443451 -274.86035966 152.56501469 -280.625 161.3125 C-281.07907227 161.99860352 -281.53314453 162.68470703 -282.00097656 163.39160156 C-292.13656572 178.81398779 -300.43734149 195.10344402 -307.6875 212.0625 C-308.152771 213.14515137 -308.61804199 214.22780273 -309.09741211 215.34326172 C-311.04998367 220.01534386 -312.77767156 224.47368851 -313.765625 229.44921875 C-314.625 233.3125 -314.625 233.3125 -317.3125 235.375 C-318.405625 236.014375 -319.49875 236.65375 -320.625 237.3125 C-322.42838544 239.1834596 -324.07468918 241.15139182 -325.74609375 243.140625 C-328.84451133 246.72216382 -332.2387442 250.00540343 -335.625 253.3125 C-335.625 250.3125 -335.625 250.3125 -333.625 248.3125 C-332.92560976 246.44176055 -332.92560976 246.44176055 -332.3984375 244.26171875 C-332.17591309 243.42930664 -331.95338867 242.59689453 -331.72412109 241.73925781 C-331.36568115 240.3833252 -331.36568115 240.3833252 -331 239 C-319.81013212 198.62247799 -298.94236072 162.6496117 -272.625 130.3125 C-272.20943848 129.79252441 -271.79387695 129.27254883 -271.36572266 128.73681641 C-264.32476144 119.96100627 -256.48907641 111.96838405 -248.5625 104 C-248.05570709 103.48794006 -247.54891418 102.97588013 -247.02676392 102.44830322 C-240.22854614 95.59553702 -233.1799107 89.33818035 -225.625 83.3125 C-224.44643408 82.31230499 -223.27250237 81.30659601 -222.10546875 80.29296875 C-203.90069294 64.72316731 -182.93567647 51.20650933 -161.625 40.3125 C-160.96467773 39.96864258 -160.30435547 39.62478516 -159.62402344 39.27050781 C-154.99816437 36.86416069 -150.33088427 34.55797053 -145.625 32.3125 C-144.96693359 31.99603516 -144.30886719 31.67957031 -143.63085938 31.35351562 C-113.82558541 17.15641411 -82.13571826 8.54236512 -49.625 3.3125 C-47.69140625 2.99152344 -47.69140625 2.99152344 -45.71875 2.6640625 C-30.59120912 0.31316088 -15.28089446 0.04361323 0 0 Z " fill="#F5F5F5" transform="translate(585.625,191.6875)"/>
<path d="M0 0 C0.88908051 -0.00261841 1.77816101 -0.00523682 2.69418335 -0.00793457 C19.21731888 -0.01310191 35.08818482 1.38935415 51.375 4.3125 C52.35774902 4.48861816 53.34049805 4.66473633 54.35302734 4.84619141 C59.33987973 5.76224981 64.30200469 6.76466511 69.25439453 7.85107422 C71.34208688 8.30533838 73.43327859 8.73633948 75.52734375 9.16015625 C80.68447275 10.21925705 85.52597039 11.22286293 90.375 13.3125 C90.375 13.6425 90.375 13.9725 90.375 14.3125 C82.94983838 13.7126507 75.92310059 12.121335 68.68063354 10.415802 C34.58444473 2.48234742 -3.04026584 -0.71742782 -37.625 6.3125 C-39.95801986 6.35074623 -42.29211508 6.35824284 -44.625 6.3125 C-44.625 5.6525 -44.625 4.9925 -44.625 4.3125 C-46.275 4.3125 -47.925 4.3125 -49.625 4.3125 C-49.625 3.9825 -49.625 3.6525 -49.625 3.3125 C-47.6264498 2.99085833 -45.6260112 2.68095819 -43.625 2.375 C-42.51125 2.20097656 -41.3975 2.02695313 -40.25 1.84765625 C-26.93343262 0.13319142 -13.40710439 0.03826524 0 0 Z " fill="#DCDCDC" transform="translate(585.625,191.6875)"/>
<path d="M0 0 C4.53592251 0.61819634 8.797731 1.75159227 13.18237305 3.01879883 C22.11398996 5.59183264 31.02578502 7.73336227 40.1875 9.3125 C41.10587646 9.47145752 42.02425293 9.63041504 42.97045898 9.79418945 C55.34484115 11.83138749 67.67701089 12.25123059 80.1875 12.5625 C81.82357626 12.60579788 83.45964409 12.6494153 85.09570312 12.69335938 C89.06371468 12.79925341 93.03181481 12.90083523 97 13 C97 13.33 97 13.66 97 14 C68.86615123 15.36951642 44.28941849 13.41655037 16.8137207 6.67089844 C13.50406379 5.88174987 10.1787652 5.19270283 6.83935547 4.54174805 C3.99924333 3.70524568 2.09578798 2.02818191 0 0 Z " fill="#B7B7B8" transform="translate(339,799)"/>
<path d="M0 0 C0 0.33 0 0.66 0 1 C-0.64026123 1.05534912 -1.28052246 1.11069824 -1.94018555 1.16772461 C-4.8562154 1.42144165 -7.77185234 1.67942949 -10.6875 1.9375 C-11.69490234 2.02451172 -12.70230469 2.11152344 -13.74023438 2.20117188 C-15.20493164 2.33168945 -15.20493164 2.33168945 -16.69921875 2.46484375 C-17.59471436 2.543396 -18.49020996 2.62194824 -19.4128418 2.70288086 C-22.01295875 2.96348181 -22.01295875 2.96348181 -24.59301758 3.52954102 C-27.74913237 4.14642236 -30.7933709 4.06287508 -34 4 C-34 3.34 -34 2.68 -34 2 C-35.65 2 -37.3 2 -39 2 C-39 1.67 -39 1.34 -39 1 C-25.92386871 -1.25658968 -13.1911696 -1.73813058 0 0 Z " fill="#E3E3E3" transform="translate(575,194)"/>
<path d="M0 0 C5.6161814 0.76499481 10.93681443 2.33019931 16.375 3.875 C25.52518858 6.4310637 34.62372738 8.46863169 44 10 C43.67 10.66 43.34 11.32 43 12 C34.30804448 10.95446855 26.05242576 9.09086594 17.62573242 6.76489258 C14.27624667 5.8435831 11.052213 5.00806983 7.61328125 4.4765625 C4.23500519 3.86049422 2.50229631 2.28150546 0 0 Z " fill="#888888" transform="translate(339,799)"/>
<path d="M0 0 C6.98638652 1.19318062 13.93440568 2.56736033 20.875 4 C22.10536987 4.2489502 22.10536987 4.2489502 23.3605957 4.50292969 C27.42405109 5.3510276 31.19757791 6.2758248 35 8 C35 8.33 35 8.66 35 9 C27.13986276 8.33015012 19.61933744 6.69766584 11.9375 4.9375 C10.69033203 4.65583984 9.44316406 4.37417969 8.15820312 4.08398438 C5.10445361 3.39367318 2.0517908 2.69891018 -1 2 C-0.67 1.34 -0.34 0.68 0 0 Z " fill="#7D7C7C" transform="translate(641,197)"/>
<path d="M0 0 C0.99 0.33 1.98 0.66 3 1 C2.154375 1.495 1.30875 1.99 0.4375 2.5 C-3.02413366 4.80235119 -5.46123747 7.66247949 -8.12109375 10.828125 C-11.21951133 14.40966382 -14.6137442 17.69290343 -18 21 C-18 18 -18 18 -16 16 C-15.35232207 13.42938689 -15.35232207 13.42938689 -15 11 C-14.01 11 -13.02 11 -12 11 C-10.00958321 9.33692526 -10.00958321 9.33692526 -8.0625 7.1875 C-2.98192771 1.81325301 -2.98192771 1.81325301 0 0 Z " fill="#D0D0D1" transform="translate(268,424)"/>
<path d="M0 0 C-4.0527516 0.98248524 -7.83861737 1.08159574 -12 1 C-12 0.34 -12 -0.32 -12 -1 C-13.65 -1 -15.3 -1 -17 -1 C-17 -1.33 -17 -1.66 -17 -2 C-15.41773035 -2.19627391 -13.83410729 -2.38165538 -12.25 -2.5625 C-11.36828125 -2.66691406 -10.4865625 -2.77132812 -9.578125 -2.87890625 C-5.43726227 -3.07340132 -3.46544918 -2.31029945 0 0 Z " fill="#C9CACA" transform="translate(553,197)"/>
<path d="M0 0 C5.81266619 0.78549543 11.36877624 2.40682459 17 4 C16.67 4.66 16.34 5.32 16 6 C9.58076669 5.70887831 5.37899794 4.54784971 0 1 C0 0.67 0 0.34 0 0 Z " fill="#555554" transform="translate(339,799)"/>
<path d="M0 0 C0.66 0.33 1.32 0.66 2 1 C-1.63 3.31 -5.26 5.62 -9 8 C-9.33 7.34 -9.66 6.68 -10 6 C-10.66 5.67 -11.32 5.34 -12 5 C-10.04578965 4.13644222 -8.08648653 3.28440066 -6.125 2.4375 C-5.03445313 1.96183594 -3.94390625 1.48617187 -2.8203125 0.99609375 C-1.88960938 0.66738281 -0.95890625 0.33867188 0 0 Z " fill="#353636" transform="translate(394,617)"/>
</svg>
